<svg width="12" height="12" viewBox="0 0 12 12" fill="none" xmlns="http://www.w3.org/2000/svg">
<path opacity="0.1" fill-rule="evenodd" clip-rule="evenodd" d="M1.125 6C1.125 3.30761 3.30761 1.125 6 1.125C8.69239 1.125 10.875 3.30761 10.875 6C10.875 8.69239 8.69239 10.875 6 10.875C3.30761 10.875 1.125 8.69239 1.125 6Z" fill="#1B851B"/>
<path fill-rule="evenodd" clip-rule="evenodd" d="M6 1.875C3.72183 1.875 1.875 3.72183 1.875 6C1.875 8.27817 3.72183 10.125 6 10.125C8.27817 10.125 10.125 8.27817 10.125 6C10.125 3.72183 8.27817 1.875 6 1.875ZM1.125 6C1.125 3.30761 3.30761 1.125 6 1.125C8.69239 1.125 10.875 3.30761 10.875 6C10.875 8.69239 8.69239 10.875 6 10.875C3.30761 10.875 1.125 8.69239 1.125 6ZM8.29016 4.38483C8.43661 4.53128 8.43661 4.76872 8.29016 4.91516L5.59017 7.61516C5.44372 7.76161 5.20628 7.76161 5.05983 7.61516L3.70983 6.26516C3.56339 6.11872 3.56339 5.88128 3.70983 5.73483C3.85628 5.58839 4.09372 5.58839 4.24016 5.73483L5.325 6.81967L7.75983 4.38483C7.90628 4.23839 8.14372 4.23839 8.29016 4.38483Z" fill="#1B851B"/>
</svg>
